<mxfile host="app.diagrams.net" modified="2024-04-02T20:12:19.616Z" agent="Mozilla/5.0 (Macintosh; Intel Mac OS X 10_15_7) AppleWebKit/537.36 (KHTML, like Gecko) Chrome/119.0.0.0 Safari/537.36" etag="_-eZTuGYCTtZvLAlfVOG" version="24.2.1" type="device">
  <diagram name="Page-1" id="YePC5Twy5RO4gaCwAQy8">
    <mxGraphModel dx="2410" dy="648" grid="1" gridSize="10" guides="1" tooltips="1" connect="1" arrows="1" fold="1" page="1" pageScale="1" pageWidth="850" pageHeight="1100" math="0" shadow="0">
      <root>
        <mxCell id="0" />
        <mxCell id="1" parent="0" />
        <mxCell id="YTTag5eJcVgc5Q4tGM9j-46" value="" style="endArrow=none;html=1;rounded=0;strokeWidth=8;fillColor=#e51400;strokeColor=#ff0000;exitX=0.5;exitY=0;exitDx=0;exitDy=0;exitPerimeter=0;movable=0;resizable=0;rotatable=0;deletable=0;editable=0;locked=1;connectable=0;" edge="1" parent="1" source="YTTag5eJcVgc5Q4tGM9j-23">
          <mxGeometry width="50" height="50" relative="1" as="geometry">
            <mxPoint x="210" y="404" as="sourcePoint" />
            <mxPoint x="130" y="350" as="targetPoint" />
          </mxGeometry>
        </mxCell>
        <mxCell id="YTTag5eJcVgc5Q4tGM9j-61" value="" style="endArrow=none;html=1;rounded=0;strokeWidth=8;fillColor=#e51400;strokeColor=#000000;exitX=0;exitY=0.5;exitDx=0;exitDy=0;movable=0;resizable=0;rotatable=0;deletable=0;editable=0;locked=1;connectable=0;" edge="1" parent="1" source="YTTag5eJcVgc5Q4tGM9j-19">
          <mxGeometry width="50" height="50" relative="1" as="geometry">
            <mxPoint x="515" y="265" as="sourcePoint" />
            <mxPoint x="340" y="280" as="targetPoint" />
          </mxGeometry>
        </mxCell>
        <mxCell id="YTTag5eJcVgc5Q4tGM9j-62" value="" style="endArrow=none;html=1;rounded=0;strokeWidth=8;fillColor=#e51400;strokeColor=#000000;movable=0;resizable=0;rotatable=0;deletable=0;editable=0;locked=1;connectable=0;" edge="1" parent="1">
          <mxGeometry width="50" height="50" relative="1" as="geometry">
            <mxPoint x="540" y="410" as="sourcePoint" />
            <mxPoint x="560" y="360" as="targetPoint" />
          </mxGeometry>
        </mxCell>
        <mxCell id="YTTag5eJcVgc5Q4tGM9j-8" value="" style="curved=1;endArrow=none;html=1;rounded=0;fillColor=#dae8fc;strokeColor=#6c8ebf;strokeWidth=22;endFill=0;movable=1;resizable=1;rotatable=1;deletable=1;editable=1;locked=0;connectable=1;" edge="1" parent="1">
          <mxGeometry width="50" height="50" relative="1" as="geometry">
            <mxPoint x="830" y="360" as="sourcePoint" />
            <mxPoint x="120" y="30" as="targetPoint" />
            <Array as="points">
              <mxPoint x="450" y="330" />
              <mxPoint x="400" y="330" />
              <mxPoint x="120" y="390" />
            </Array>
          </mxGeometry>
        </mxCell>
        <mxCell id="YTTag5eJcVgc5Q4tGM9j-13" value="" style="edgeStyle=orthogonalEdgeStyle;rounded=0;orthogonalLoop=1;jettySize=auto;html=1;endArrow=none;endFill=0;strokeWidth=7;movable=0;resizable=0;rotatable=0;deletable=0;editable=0;locked=1;connectable=0;" edge="1" parent="1" source="YTTag5eJcVgc5Q4tGM9j-6" target="YTTag5eJcVgc5Q4tGM9j-3">
          <mxGeometry relative="1" as="geometry" />
        </mxCell>
        <mxCell id="YTTag5eJcVgc5Q4tGM9j-15" value="" style="edgeStyle=orthogonalEdgeStyle;rounded=0;orthogonalLoop=1;jettySize=auto;html=1;entryX=0.5;entryY=1;entryDx=0;entryDy=0;fillColor=#e51400;strokeColor=#ff0000;strokeWidth=7;endArrow=none;endFill=0;movable=0;resizable=0;rotatable=0;deletable=0;editable=0;locked=1;connectable=0;" edge="1" parent="1" source="YTTag5eJcVgc5Q4tGM9j-6" target="YTTag5eJcVgc5Q4tGM9j-4">
          <mxGeometry relative="1" as="geometry">
            <mxPoint x="80" y="160" as="targetPoint" />
            <Array as="points">
              <mxPoint x="40" y="140" />
            </Array>
          </mxGeometry>
        </mxCell>
        <mxCell id="YTTag5eJcVgc5Q4tGM9j-6" value="" style="shape=cylinder3;whiteSpace=wrap;html=1;boundedLbl=1;backgroundOutline=1;size=6;fillColor=#fff2cc;strokeColor=#d6b656;movable=0;resizable=0;rotatable=0;deletable=0;editable=0;locked=1;connectable=0;" vertex="1" parent="1">
          <mxGeometry x="30" y="180" width="20" height="40" as="geometry" />
        </mxCell>
        <mxCell id="YTTag5eJcVgc5Q4tGM9j-17" value="" style="edgeStyle=orthogonalEdgeStyle;rounded=0;orthogonalLoop=1;jettySize=auto;html=1;entryX=0.5;entryY=0;entryDx=0;entryDy=0;fillColor=#e51400;strokeColor=#ff0000;strokeWidth=7;endArrow=none;endFill=0;movable=0;resizable=0;rotatable=0;deletable=0;editable=0;locked=1;connectable=0;" edge="1" parent="1" source="YTTag5eJcVgc5Q4tGM9j-7" target="YTTag5eJcVgc5Q4tGM9j-5">
          <mxGeometry relative="1" as="geometry">
            <Array as="points">
              <mxPoint x="190" y="140" />
            </Array>
          </mxGeometry>
        </mxCell>
        <mxCell id="YTTag5eJcVgc5Q4tGM9j-18" value="" style="edgeStyle=orthogonalEdgeStyle;rounded=0;orthogonalLoop=1;jettySize=auto;html=1;entryX=0.5;entryY=0;entryDx=0;entryDy=0;strokeWidth=7;endArrow=none;endFill=0;movable=0;resizable=0;rotatable=0;deletable=0;editable=0;locked=1;connectable=0;" edge="1" parent="1" source="YTTag5eJcVgc5Q4tGM9j-7" target="YTTag5eJcVgc5Q4tGM9j-1">
          <mxGeometry relative="1" as="geometry">
            <Array as="points">
              <mxPoint x="160" y="190" />
              <mxPoint x="160" y="190" />
            </Array>
          </mxGeometry>
        </mxCell>
        <mxCell id="YTTag5eJcVgc5Q4tGM9j-28" value="" style="endArrow=none;html=1;rounded=0;strokeWidth=8;fillColor=#e51400;strokeColor=#ff0000;movable=0;resizable=0;rotatable=0;deletable=0;editable=0;locked=1;connectable=0;" edge="1" parent="1">
          <mxGeometry width="50" height="50" relative="1" as="geometry">
            <mxPoint x="200" y="394" as="sourcePoint" />
            <mxPoint x="240" y="324" as="targetPoint" />
          </mxGeometry>
        </mxCell>
        <mxCell id="YTTag5eJcVgc5Q4tGM9j-7" value="" style="shape=cylinder3;whiteSpace=wrap;html=1;boundedLbl=1;backgroundOutline=1;size=6;fillColor=#fff2cc;strokeColor=#d6b656;movable=0;resizable=0;rotatable=0;deletable=0;editable=0;locked=1;connectable=0;" vertex="1" parent="1">
          <mxGeometry x="180" y="170" width="20" height="40" as="geometry" />
        </mxCell>
        <mxCell id="YTTag5eJcVgc5Q4tGM9j-9" value="" style="curved=1;endArrow=none;html=1;rounded=0;fillColor=#dae8fc;strokeColor=#000000;strokeWidth=7;endFill=0;entryX=0.5;entryY=1;entryDx=0;entryDy=0;entryPerimeter=0;movable=0;resizable=0;rotatable=0;deletable=0;editable=0;locked=1;connectable=0;" edge="1" parent="1" target="YTTag5eJcVgc5Q4tGM9j-6">
          <mxGeometry width="50" height="50" relative="1" as="geometry">
            <mxPoint x="640" y="460" as="sourcePoint" />
            <mxPoint x="40" y="210" as="targetPoint" />
            <Array as="points">
              <mxPoint x="490" y="370" />
              <mxPoint x="320" y="410" />
              <mxPoint x="130" y="390" />
            </Array>
          </mxGeometry>
        </mxCell>
        <mxCell id="YTTag5eJcVgc5Q4tGM9j-10" value="" style="curved=1;endArrow=none;html=1;rounded=0;fillColor=#dae8fc;strokeColor=#000000;strokeWidth=7;endFill=0;entryX=0.5;entryY=1;entryDx=0;entryDy=0;entryPerimeter=0;exitX=0.5;exitY=0;exitDx=0;exitDy=0;movable=0;resizable=0;rotatable=0;deletable=0;editable=0;locked=1;connectable=0;" edge="1" parent="1" source="YTTag5eJcVgc5Q4tGM9j-36" target="YTTag5eJcVgc5Q4tGM9j-7">
          <mxGeometry width="50" height="50" relative="1" as="geometry">
            <mxPoint x="460" y="260" as="sourcePoint" />
            <mxPoint x="170" y="200" as="targetPoint" />
            <Array as="points">
              <mxPoint x="380" y="270" />
              <mxPoint x="300" y="290" />
              <mxPoint x="260" y="330" />
              <mxPoint x="200" y="320" />
            </Array>
          </mxGeometry>
        </mxCell>
        <mxCell id="YTTag5eJcVgc5Q4tGM9j-19" value="" style="triangle;whiteSpace=wrap;html=1;direction=south;fillColor=#f8cecc;strokeColor=#b85450;movable=0;resizable=0;rotatable=0;deletable=0;editable=0;locked=1;connectable=0;" vertex="1" parent="1">
          <mxGeometry x="340" y="320" width="20" height="20" as="geometry" />
        </mxCell>
        <mxCell id="YTTag5eJcVgc5Q4tGM9j-22" value="" style="triangle;whiteSpace=wrap;html=1;direction=south;fillColor=#f8cecc;strokeColor=#b85450;movable=0;resizable=0;rotatable=0;deletable=0;editable=0;locked=1;connectable=0;" vertex="1" parent="1">
          <mxGeometry x="550" y="350" width="20" height="20" as="geometry" />
        </mxCell>
        <mxCell id="YTTag5eJcVgc5Q4tGM9j-23" value="" style="shape=cylinder3;whiteSpace=wrap;html=1;boundedLbl=1;backgroundOutline=1;size=14.545454545454504;fillColor=#fff2cc;strokeColor=#d6b656;movable=0;resizable=0;rotatable=0;deletable=0;editable=0;locked=1;connectable=0;" vertex="1" parent="1">
          <mxGeometry x="90" y="450" width="80" height="60" as="geometry" />
        </mxCell>
        <mxCell id="YTTag5eJcVgc5Q4tGM9j-24" value="CSO-9" style="text;html=1;align=center;verticalAlign=middle;whiteSpace=wrap;rounded=0;movable=0;resizable=0;rotatable=0;deletable=0;editable=0;locked=1;connectable=0;" vertex="1" parent="1">
          <mxGeometry x="530" y="305" width="60" height="30" as="geometry" />
        </mxCell>
        <mxCell id="YTTag5eJcVgc5Q4tGM9j-29" value="CSO-3" style="text;html=1;align=center;verticalAlign=middle;whiteSpace=wrap;rounded=0;movable=0;resizable=0;rotatable=0;deletable=0;editable=0;locked=1;connectable=0;" vertex="1" parent="1">
          <mxGeometry x="560" y="350" width="60" height="30" as="geometry" />
        </mxCell>
        <mxCell id="YTTag5eJcVgc5Q4tGM9j-30" value="CSO-4" style="text;html=1;align=center;verticalAlign=middle;whiteSpace=wrap;rounded=0;movable=0;resizable=0;rotatable=0;deletable=0;editable=0;locked=1;connectable=0;" vertex="1" parent="1">
          <mxGeometry x="290" y="315" width="60" height="30" as="geometry" />
        </mxCell>
        <mxCell id="YTTag5eJcVgc5Q4tGM9j-31" value="" style="endArrow=none;html=1;rounded=0;strokeWidth=8;movable=0;resizable=0;rotatable=0;deletable=0;editable=0;locked=1;connectable=0;" edge="1" parent="1">
          <mxGeometry width="50" height="50" relative="1" as="geometry">
            <mxPoint x="530" y="315" as="sourcePoint" />
            <mxPoint x="560" y="60" as="targetPoint" />
          </mxGeometry>
        </mxCell>
        <mxCell id="YTTag5eJcVgc5Q4tGM9j-33" value="" style="ellipse;whiteSpace=wrap;html=1;aspect=fixed;fillColor=#ff1500;fontColor=#ffffff;strokeColor=none;movable=0;resizable=0;rotatable=0;deletable=0;editable=0;locked=1;connectable=0;" vertex="1" parent="1">
          <mxGeometry x="206" y="370" width="20" height="20" as="geometry" />
        </mxCell>
        <mxCell id="YTTag5eJcVgc5Q4tGM9j-36" value="" style="shape=collate;whiteSpace=wrap;html=1;direction=west;rotation=90;fillColor=#fa6800;fontColor=#000000;strokeColor=#C73500;movable=0;resizable=0;rotatable=0;deletable=0;editable=0;locked=1;connectable=0;" vertex="1" parent="1">
          <mxGeometry x="480" y="240" width="20" height="30" as="geometry" />
        </mxCell>
        <mxCell id="YTTag5eJcVgc5Q4tGM9j-39" value="" style="endArrow=none;html=1;rounded=0;strokeWidth=8;fillColor=#e51400;strokeColor=#000000;exitX=0.5;exitY=1;exitDx=0;exitDy=0;movable=0;resizable=0;rotatable=0;deletable=0;editable=0;locked=1;connectable=0;" edge="1" parent="1" source="YTTag5eJcVgc5Q4tGM9j-36">
          <mxGeometry width="50" height="50" relative="1" as="geometry">
            <mxPoint x="510" y="254.87" as="sourcePoint" />
            <mxPoint x="540" y="255" as="targetPoint" />
          </mxGeometry>
        </mxCell>
        <mxCell id="YTTag5eJcVgc5Q4tGM9j-47" value="" style="ellipse;whiteSpace=wrap;html=1;aspect=fixed;fillColor=#ff1500;fontColor=#ffffff;strokeColor=none;movable=0;resizable=0;rotatable=0;deletable=0;editable=0;locked=1;connectable=0;" vertex="1" parent="1">
          <mxGeometry x="126" y="420" width="20" height="20" as="geometry" />
        </mxCell>
        <mxCell id="YTTag5eJcVgc5Q4tGM9j-49" value="" style="ellipse;whiteSpace=wrap;html=1;aspect=fixed;fillColor=#ff1500;fontColor=#ffffff;strokeColor=none;movable=0;resizable=0;rotatable=0;deletable=0;editable=0;locked=1;connectable=0;" vertex="1" parent="1">
          <mxGeometry x="37" y="151" width="20" height="20" as="geometry" />
        </mxCell>
        <mxCell id="YTTag5eJcVgc5Q4tGM9j-52" value="" style="ellipse;whiteSpace=wrap;html=1;aspect=fixed;fillColor=#ff1500;fontColor=#ffffff;strokeColor=none;movable=0;resizable=0;rotatable=0;deletable=0;editable=0;locked=1;connectable=0;" vertex="1" parent="1">
          <mxGeometry x="187" y="148" width="20" height="20" as="geometry" />
        </mxCell>
        <mxCell id="YTTag5eJcVgc5Q4tGM9j-57" value="" style="verticalLabelPosition=bottom;verticalAlign=top;html=1;shape=mxgraph.basic.rect;fillColor2=none;strokeWidth=1;size=28.75;indent=0;fillColor=#dae8fc;strokeColor=#6c8ebf;rotation=0;movable=0;resizable=0;rotatable=0;deletable=0;editable=0;locked=1;connectable=0;" vertex="1" parent="1">
          <mxGeometry x="510" y="271" width="50" height="31.25" as="geometry" />
        </mxCell>
        <mxCell id="YTTag5eJcVgc5Q4tGM9j-63" value="" style="endArrow=none;html=1;rounded=0;strokeWidth=8;fillColor=#e51400;strokeColor=#000000;movable=0;resizable=0;rotatable=0;deletable=0;editable=0;locked=1;connectable=0;" edge="1" parent="1">
          <mxGeometry width="50" height="50" relative="1" as="geometry">
            <mxPoint x="160" y="460" as="sourcePoint" />
            <mxPoint x="210" y="400" as="targetPoint" />
          </mxGeometry>
        </mxCell>
        <mxCell id="YTTag5eJcVgc5Q4tGM9j-53" value="" style="verticalLabelPosition=bottom;verticalAlign=top;html=1;shape=mxgraph.basic.rect;fillColor2=none;strokeWidth=1;size=28.75;indent=0;fillColor=#dae8fc;strokeColor=#6c8ebf;rotation=0;movable=0;resizable=0;rotatable=0;deletable=0;editable=0;locked=1;connectable=0;" vertex="1" parent="1">
          <mxGeometry x="162" y="421" width="50" height="31.25" as="geometry" />
        </mxCell>
        <mxCell id="YTTag5eJcVgc5Q4tGM9j-64" value="" style="endArrow=none;html=1;rounded=0;strokeWidth=8;fillColor=#e51400;strokeColor=#000000;movable=0;resizable=0;rotatable=0;deletable=0;editable=0;locked=1;connectable=0;" edge="1" parent="1">
          <mxGeometry width="50" height="50" relative="1" as="geometry">
            <mxPoint x="164" y="455" as="sourcePoint" />
            <mxPoint x="183.74509803921558" y="431.25" as="targetPoint" />
          </mxGeometry>
        </mxCell>
        <mxCell id="YTTag5eJcVgc5Q4tGM9j-56" value="" style="verticalLabelPosition=bottom;verticalAlign=top;html=1;shape=mxgraph.basic.rect;fillColor2=none;strokeWidth=0;size=28.75;indent=0;rotation=0;strokeColor=none;movable=0;resizable=0;rotatable=0;deletable=0;editable=0;locked=1;connectable=0;" vertex="1" parent="1">
          <mxGeometry x="170" y="420" width="33" height="16.25" as="geometry" />
        </mxCell>
        <mxCell id="YTTag5eJcVgc5Q4tGM9j-65" value="" style="endArrow=none;html=1;rounded=0;strokeWidth=8;fillColor=#e51400;strokeColor=#000000;movable=0;resizable=0;rotatable=0;deletable=0;editable=0;locked=1;connectable=0;" edge="1" parent="1">
          <mxGeometry width="50" height="50" relative="1" as="geometry">
            <mxPoint x="530" y="316" as="sourcePoint" />
            <mxPoint x="534.0298507462686" y="282.24999999999994" as="targetPoint" />
          </mxGeometry>
        </mxCell>
        <mxCell id="YTTag5eJcVgc5Q4tGM9j-58" value="" style="verticalLabelPosition=bottom;verticalAlign=top;html=1;shape=mxgraph.basic.rect;fillColor2=none;strokeWidth=0;size=28.75;indent=0;rotation=0;strokeColor=none;movable=0;resizable=0;rotatable=0;deletable=0;editable=0;locked=1;connectable=0;" vertex="1" parent="1">
          <mxGeometry x="518.5" y="270" width="33" height="16.25" as="geometry" />
        </mxCell>
        <mxCell id="YTTag5eJcVgc5Q4tGM9j-21" value="" style="triangle;whiteSpace=wrap;html=1;direction=south;fillColor=#f8cecc;strokeColor=#b85450;movable=0;resizable=0;rotatable=0;deletable=0;editable=0;locked=1;connectable=0;" vertex="1" parent="1">
          <mxGeometry x="520" y="315" width="20" height="20" as="geometry" />
        </mxCell>
        <mxCell id="YTTag5eJcVgc5Q4tGM9j-66" value="" style="endArrow=none;html=1;rounded=0;strokeWidth=8;fillColor=#e51400;strokeColor=#000000;movable=0;resizable=0;rotatable=0;deletable=0;editable=0;locked=1;connectable=0;exitX=0.5;exitY=1;exitDx=0;exitDy=0;" edge="1" parent="1" source="YTTag5eJcVgc5Q4tGM9j-44">
          <mxGeometry width="50" height="50" relative="1" as="geometry">
            <mxPoint x="184" y="475" as="sourcePoint" />
            <mxPoint x="740" y="455" as="targetPoint" />
          </mxGeometry>
        </mxCell>
        <mxCell id="YTTag5eJcVgc5Q4tGM9j-67" value="" style="endArrow=none;html=1;rounded=0;strokeWidth=8;fillColor=#e51400;strokeColor=#000000;movable=0;resizable=0;rotatable=0;deletable=0;editable=0;locked=1;connectable=0;entryX=0.529;entryY=0.302;entryDx=0;entryDy=0;entryPerimeter=0;exitX=1.049;exitY=0.6;exitDx=0;exitDy=0;exitPerimeter=0;" edge="1" parent="1" source="YTTag5eJcVgc5Q4tGM9j-59" target="YTTag5eJcVgc5Q4tGM9j-32">
          <mxGeometry width="50" height="50" relative="1" as="geometry">
            <mxPoint x="651.5" y="406.25" as="sourcePoint" />
            <mxPoint x="741.5" y="432.25" as="targetPoint" />
          </mxGeometry>
        </mxCell>
        <mxCell id="YTTag5eJcVgc5Q4tGM9j-32" value="" style="verticalLabelPosition=bottom;verticalAlign=top;html=1;shape=mxgraph.basic.half_circle;fillColor=#dae8fc;strokeColor=#6c8ebf;movable=0;resizable=0;rotatable=0;deletable=0;editable=0;locked=1;connectable=0;" vertex="1" parent="1">
          <mxGeometry x="670" y="379.38" width="170" height="101.25" as="geometry" />
        </mxCell>
        <mxCell id="YTTag5eJcVgc5Q4tGM9j-68" value="" style="endArrow=none;html=1;rounded=0;strokeWidth=8;fillColor=#e51400;strokeColor=#000000;movable=0;resizable=0;rotatable=0;deletable=0;editable=0;locked=1;connectable=0;entryX=-0.049;entryY=1.068;entryDx=0;entryDy=0;entryPerimeter=0;" edge="1" parent="1" target="YTTag5eJcVgc5Q4tGM9j-60">
          <mxGeometry width="50" height="50" relative="1" as="geometry">
            <mxPoint x="580" y="430" as="sourcePoint" />
            <mxPoint x="775" y="501" as="targetPoint" />
          </mxGeometry>
        </mxCell>
        <mxCell id="YTTag5eJcVgc5Q4tGM9j-59" value="" style="verticalLabelPosition=bottom;verticalAlign=top;html=1;shape=mxgraph.basic.rect;fillColor2=none;strokeWidth=1;size=28.75;indent=0;fillColor=#dae8fc;strokeColor=#6c8ebf;rotation=0;movable=0;resizable=0;rotatable=0;deletable=0;editable=0;locked=1;connectable=0;" vertex="1" parent="1">
          <mxGeometry x="610" y="391" width="50" height="31.25" as="geometry" />
        </mxCell>
        <mxCell id="YTTag5eJcVgc5Q4tGM9j-60" value="" style="verticalLabelPosition=bottom;verticalAlign=top;html=1;shape=mxgraph.basic.rect;fillColor2=none;strokeWidth=0;size=28.75;indent=0;rotation=0;strokeColor=none;movable=0;resizable=0;rotatable=0;deletable=0;editable=0;locked=1;connectable=0;" vertex="1" parent="1">
          <mxGeometry x="618.5" y="390" width="33" height="16.25" as="geometry" />
        </mxCell>
        <mxCell id="YTTag5eJcVgc5Q4tGM9j-69" value="East River Interceptor" style="text;html=1;align=center;verticalAlign=middle;whiteSpace=wrap;rounded=0;movable=0;resizable=0;rotatable=0;deletable=0;editable=0;locked=1;connectable=0;rotation=349;fontStyle=1;textShadow=1;labelBorderColor=default;" vertex="1" parent="1">
          <mxGeometry x="330" y="240" width="130" height="30" as="geometry" />
        </mxCell>
        <mxCell id="YTTag5eJcVgc5Q4tGM9j-70" value="West River Interceptor" style="text;html=1;align=center;verticalAlign=middle;whiteSpace=wrap;rounded=0;movable=0;resizable=0;rotatable=0;deletable=0;editable=0;locked=1;connectable=0;rotation=352;fontStyle=1;textShadow=1;labelBorderColor=default;" vertex="1" parent="1">
          <mxGeometry x="309.95" y="366.3" width="140" height="30" as="geometry" />
        </mxCell>
        <mxCell id="YTTag5eJcVgc5Q4tGM9j-44" value="" style="shape=collate;whiteSpace=wrap;html=1;direction=west;rotation=90;fillColor=#fa6800;fontColor=#000000;strokeColor=#C73500;movable=0;resizable=0;rotatable=0;deletable=0;editable=0;locked=1;connectable=0;" vertex="1" parent="1">
          <mxGeometry x="640" y="440" width="20" height="30" as="geometry" />
        </mxCell>
        <mxCell id="YTTag5eJcVgc5Q4tGM9j-72" value="" style="edgeStyle=orthogonalEdgeStyle;rounded=0;orthogonalLoop=1;jettySize=auto;html=1;dashed=1;movable=0;resizable=0;rotatable=0;deletable=0;editable=0;locked=1;connectable=0;" edge="1" parent="1" source="YTTag5eJcVgc5Q4tGM9j-71">
          <mxGeometry relative="1" as="geometry">
            <mxPoint x="490" y="250" as="targetPoint" />
          </mxGeometry>
        </mxCell>
        <mxCell id="YTTag5eJcVgc5Q4tGM9j-71" value="CSO-9 Underflow Regulator&amp;nbsp;" style="text;html=1;align=center;verticalAlign=middle;whiteSpace=wrap;rounded=0;movable=0;resizable=0;rotatable=0;deletable=0;editable=0;locked=1;connectable=0;rotation=0;fontStyle=1;textShadow=1;labelBorderColor=default;fillColor=#fff2cc;strokeColor=#d6b656;gradientColor=#ffd966;" vertex="1" parent="1">
          <mxGeometry x="350" y="60" width="140" height="30" as="geometry" />
        </mxCell>
        <mxCell id="YTTag5eJcVgc5Q4tGM9j-75" value="" style="edgeStyle=orthogonalEdgeStyle;rounded=0;orthogonalLoop=1;jettySize=auto;html=1;entryX=0.978;entryY=0.555;entryDx=0;entryDy=0;entryPerimeter=0;dashed=1;movable=0;resizable=0;rotatable=0;deletable=0;editable=0;locked=1;connectable=0;" edge="1" parent="1" source="YTTag5eJcVgc5Q4tGM9j-73" target="YTTag5eJcVgc5Q4tGM9j-57">
          <mxGeometry relative="1" as="geometry">
            <Array as="points">
              <mxPoint x="722" y="170" />
              <mxPoint x="600" y="170" />
              <mxPoint x="600" y="288" />
            </Array>
          </mxGeometry>
        </mxCell>
        <mxCell id="YTTag5eJcVgc5Q4tGM9j-73" value="CSO-9 Overflow Inflatable Dam&amp;nbsp;" style="text;html=1;align=center;verticalAlign=middle;whiteSpace=wrap;rounded=0;movable=1;resizable=1;rotatable=1;deletable=1;editable=1;locked=0;connectable=1;rotation=0;fontStyle=1;textShadow=1;labelBorderColor=default;fillColor=#fff2cc;strokeColor=#d6b656;gradientColor=#ffd966;" vertex="1" parent="1">
          <mxGeometry x="651.5" y="131" width="140" height="30" as="geometry" />
        </mxCell>
        <mxCell id="YTTag5eJcVgc5Q4tGM9j-76" value="" style="edgeStyle=orthogonalEdgeStyle;rounded=0;orthogonalLoop=1;jettySize=auto;html=1;entryX=0;entryY=0.5;entryDx=0;entryDy=0;dashed=1;exitX=0.5;exitY=0;exitDx=0;exitDy=0;movable=0;resizable=0;rotatable=0;deletable=0;editable=0;locked=1;connectable=0;" edge="1" parent="1" source="YTTag5eJcVgc5Q4tGM9j-77" target="YTTag5eJcVgc5Q4tGM9j-44">
          <mxGeometry relative="1" as="geometry">
            <mxPoint x="559" y="788" as="targetPoint" />
            <Array as="points">
              <mxPoint x="722" y="520" />
              <mxPoint x="650" y="520" />
            </Array>
          </mxGeometry>
        </mxCell>
        <mxCell id="YTTag5eJcVgc5Q4tGM9j-77" value="Lake Level Control Gate" style="text;html=1;align=center;verticalAlign=middle;whiteSpace=wrap;rounded=0;movable=0;resizable=0;rotatable=0;deletable=0;editable=0;locked=1;connectable=0;rotation=0;fontStyle=1;textShadow=1;labelBorderColor=default;fillColor=#fff2cc;strokeColor=#d6b656;gradientColor=#ffd966;" vertex="1" parent="1">
          <mxGeometry x="651.5" y="560" width="140" height="30" as="geometry" />
        </mxCell>
        <mxCell id="YTTag5eJcVgc5Q4tGM9j-78" value="" style="edgeStyle=orthogonalEdgeStyle;rounded=0;orthogonalLoop=1;jettySize=auto;html=1;dashed=1;exitX=0.5;exitY=0;exitDx=0;exitDy=0;movable=0;resizable=0;rotatable=0;deletable=0;editable=0;locked=1;connectable=0;" edge="1" parent="1" source="YTTag5eJcVgc5Q4tGM9j-79">
          <mxGeometry relative="1" as="geometry">
            <mxPoint x="220" y="360" as="targetPoint" />
            <Array as="points">
              <mxPoint x="356" y="490" />
              <mxPoint x="284" y="490" />
              <mxPoint x="284" y="360" />
            </Array>
          </mxGeometry>
        </mxCell>
        <mxCell id="YTTag5eJcVgc5Q4tGM9j-79" value="Bridge River Cross Pump (max 20 cfs)" style="text;html=1;align=center;verticalAlign=middle;whiteSpace=wrap;rounded=0;movable=0;resizable=0;rotatable=0;deletable=0;editable=0;locked=1;connectable=0;rotation=0;fontStyle=1;textShadow=1;labelBorderColor=default;fillColor=#fff2cc;strokeColor=#d6b656;gradientColor=#ffd966;" vertex="1" parent="1">
          <mxGeometry x="285.5" y="560" width="140" height="30" as="geometry" />
        </mxCell>
        <mxCell id="YTTag5eJcVgc5Q4tGM9j-80" value="" style="edgeStyle=orthogonalEdgeStyle;rounded=0;orthogonalLoop=1;jettySize=auto;html=1;entryX=0.51;entryY=1.088;entryDx=0;entryDy=0;dashed=1;exitX=0.5;exitY=0;exitDx=0;exitDy=0;entryPerimeter=0;movable=0;resizable=0;rotatable=0;deletable=0;editable=0;locked=1;connectable=0;" edge="1" parent="1" source="YTTag5eJcVgc5Q4tGM9j-81" target="YTTag5eJcVgc5Q4tGM9j-53">
          <mxGeometry relative="1" as="geometry">
            <mxPoint x="126.25" y="465" as="targetPoint" />
            <Array as="points">
              <mxPoint x="198" y="520" />
              <mxPoint x="188" y="520" />
            </Array>
          </mxGeometry>
        </mxCell>
        <mxCell id="YTTag5eJcVgc5Q4tGM9j-81" value="Old WWTP Primary Tank Diversion Gate" style="text;html=1;align=center;verticalAlign=middle;whiteSpace=wrap;rounded=0;movable=0;resizable=0;rotatable=0;deletable=0;editable=0;locked=1;connectable=0;rotation=0;fontStyle=1;textShadow=1;labelBorderColor=default;fillColor=#fff2cc;strokeColor=#d6b656;gradientColor=#ffd966;" vertex="1" parent="1">
          <mxGeometry x="180" y="510" width="140" height="30" as="geometry" />
        </mxCell>
        <mxCell id="YTTag5eJcVgc5Q4tGM9j-84" value="" style="edgeStyle=orthogonalEdgeStyle;rounded=0;orthogonalLoop=1;jettySize=auto;html=1;dashed=1;movable=0;resizable=0;rotatable=0;deletable=0;editable=0;locked=1;connectable=0;" edge="1" parent="1" source="YTTag5eJcVgc5Q4tGM9j-82">
          <mxGeometry relative="1" as="geometry">
            <mxPoint x="130" y="410" as="targetPoint" />
            <Array as="points">
              <mxPoint x="60" y="410" />
            </Array>
          </mxGeometry>
        </mxCell>
        <mxCell id="YTTag5eJcVgc5Q4tGM9j-82" value="Old WWTP Primary Dewater Pump" style="text;html=1;align=center;verticalAlign=middle;whiteSpace=wrap;rounded=0;movable=0;resizable=0;rotatable=0;deletable=0;editable=0;locked=1;connectable=0;rotation=0;fontStyle=1;textShadow=1;labelBorderColor=default;" vertex="1" parent="1">
          <mxGeometry x="30" y="560" width="140" height="30" as="geometry" />
        </mxCell>
        <mxCell id="YTTag5eJcVgc5Q4tGM9j-83" value="" style="shape=waypoint;sketch=0;size=6;pointerEvents=1;points=[];fillColor=#fff2cc;resizable=0;rotatable=0;perimeter=centerPerimeter;snapToPoint=1;strokeColor=#d6b656;gradientColor=#ffd966;rounded=0;fontStyle=1;labelBorderColor=default;movable=0;deletable=0;editable=0;locked=1;connectable=0;" vertex="1" parent="1">
          <mxGeometry x="90" y="455" width="20" height="20" as="geometry" />
        </mxCell>
        <mxCell id="YTTag5eJcVgc5Q4tGM9j-85" value="East River&amp;nbsp;&lt;div&gt;WWTP&lt;/div&gt;" style="text;html=1;align=center;verticalAlign=middle;whiteSpace=wrap;rounded=0;movable=0;resizable=0;rotatable=0;deletable=0;editable=0;locked=1;connectable=0;rotation=0;fontStyle=1;textShadow=1;labelBorderColor=default;" vertex="1" parent="1">
          <mxGeometry x="108" y="71" width="130" height="30" as="geometry" />
        </mxCell>
        <mxCell id="YTTag5eJcVgc5Q4tGM9j-86" value="West River&amp;nbsp;&lt;div&gt;WWTP&lt;/div&gt;" style="text;html=1;align=center;verticalAlign=middle;whiteSpace=wrap;rounded=0;movable=0;resizable=0;rotatable=0;deletable=0;editable=0;locked=1;connectable=0;rotation=0;fontStyle=1;textShadow=1;labelBorderColor=default;" vertex="1" parent="1">
          <mxGeometry x="9" y="71" width="130" height="30" as="geometry" />
        </mxCell>
        <mxCell id="YTTag5eJcVgc5Q4tGM9j-87" value="" style="shape=mxgraph.arrows2.wedgeArrow;html=1;bendable=0;startWidth=8.095238095238095;fillColor=strokeColor;defaultFillColor=invert;defaultGradientColor=invert;rounded=0;movable=0;resizable=0;rotatable=0;deletable=0;editable=0;locked=1;connectable=0;" edge="1" parent="1">
          <mxGeometry width="100" height="100" relative="1" as="geometry">
            <mxPoint x="226" y="350" as="sourcePoint" />
            <mxPoint x="230" y="340" as="targetPoint" />
          </mxGeometry>
        </mxCell>
        <mxCell id="YTTag5eJcVgc5Q4tGM9j-4" value="" style="triangle;whiteSpace=wrap;html=1;direction=south;fillColor=#dae8fc;strokeColor=#6c8ebf;movable=0;resizable=0;rotatable=0;deletable=0;editable=0;locked=1;connectable=0;" vertex="1" parent="1">
          <mxGeometry x="88" y="131" width="20" height="20" as="geometry" />
        </mxCell>
        <mxCell id="YTTag5eJcVgc5Q4tGM9j-3" value="" style="triangle;whiteSpace=wrap;html=1;direction=south;fillColor=#f8cecc;strokeColor=#b85450;movable=0;resizable=0;rotatable=0;deletable=0;editable=0;locked=1;connectable=0;" vertex="1" parent="1">
          <mxGeometry x="93" y="190" width="20" height="20" as="geometry" />
        </mxCell>
        <mxCell id="YTTag5eJcVgc5Q4tGM9j-1" value="" style="triangle;whiteSpace=wrap;html=1;direction=south;fillColor=#f8cecc;strokeColor=#b85450;movable=0;resizable=0;rotatable=0;deletable=0;editable=0;locked=1;connectable=0;" vertex="1" parent="1">
          <mxGeometry x="146" y="181" width="20" height="20" as="geometry" />
        </mxCell>
        <mxCell id="YTTag5eJcVgc5Q4tGM9j-5" value="" style="triangle;whiteSpace=wrap;html=1;direction=south;fillColor=#dae8fc;strokeColor=#6c8ebf;movable=0;resizable=0;rotatable=0;deletable=0;editable=0;locked=1;connectable=0;" vertex="1" parent="1">
          <mxGeometry x="144" y="131" width="20" height="20" as="geometry" />
        </mxCell>
        <mxCell id="YTTag5eJcVgc5Q4tGM9j-88" value="Gravity Bypass&lt;div&gt;Depth:&lt;b&gt; 7ft&lt;/b&gt;&lt;/div&gt;" style="text;html=1;align=center;verticalAlign=middle;whiteSpace=wrap;rounded=0;movable=0;resizable=0;rotatable=0;deletable=0;editable=0;locked=1;connectable=0;" vertex="1" parent="1">
          <mxGeometry x="66" y="210" width="60" height="30" as="geometry" />
        </mxCell>
        <mxCell id="YTTag5eJcVgc5Q4tGM9j-89" value="Gravity Bypass&lt;div&gt;Depth: &lt;b&gt;8ft&lt;/b&gt;&lt;/div&gt;" style="text;html=1;align=center;verticalAlign=middle;whiteSpace=wrap;rounded=0;movable=0;resizable=0;rotatable=0;deletable=0;editable=0;locked=1;connectable=0;" vertex="1" parent="1">
          <mxGeometry x="127" y="201" width="60" height="30" as="geometry" />
        </mxCell>
        <mxCell id="YTTag5eJcVgc5Q4tGM9j-90" value="Lake" style="text;html=1;align=center;verticalAlign=middle;whiteSpace=wrap;rounded=0;movable=0;resizable=0;rotatable=0;deletable=0;editable=0;locked=1;connectable=0;rotation=0;fontStyle=1;textShadow=1;labelBorderColor=default;" vertex="1" parent="1">
          <mxGeometry x="685" y="390" width="140" height="30" as="geometry" />
        </mxCell>
        <mxCell id="YTTag5eJcVgc5Q4tGM9j-91" value="0.5 MG" style="text;html=1;align=center;verticalAlign=middle;whiteSpace=wrap;rounded=0;movable=0;resizable=0;rotatable=0;deletable=0;editable=0;locked=1;connectable=0;" vertex="1" parent="1">
          <mxGeometry x="102" y="472" width="60" height="30" as="geometry" />
        </mxCell>
        <mxCell id="YTTag5eJcVgc5Q4tGM9j-92" value="Overflow Depth: &lt;b&gt;5.298ft&lt;/b&gt;" style="text;html=1;align=center;verticalAlign=middle;whiteSpace=wrap;rounded=0;movable=0;resizable=0;rotatable=0;deletable=0;editable=0;locked=1;connectable=0;" vertex="1" parent="1">
          <mxGeometry x="449.95" y="410" width="99" height="30" as="geometry" />
        </mxCell>
        <mxCell id="YTTag5eJcVgc5Q4tGM9j-93" value="Overflow Depth: &lt;b&gt;4.0ft&lt;/b&gt;" style="text;html=1;align=center;verticalAlign=middle;whiteSpace=wrap;rounded=0;movable=0;resizable=0;rotatable=0;deletable=0;editable=0;locked=1;connectable=0;" vertex="1" parent="1">
          <mxGeometry x="230" y="263.13" width="100" height="30" as="geometry" />
        </mxCell>
        <mxCell id="YTTag5eJcVgc5Q4tGM9j-94" value="Overflow Depth: &lt;b&gt;f(dam height)&lt;/b&gt;" style="text;html=1;align=center;verticalAlign=middle;whiteSpace=wrap;rounded=0;movable=0;resizable=0;rotatable=0;deletable=0;editable=0;locked=1;connectable=0;" vertex="1" parent="1">
          <mxGeometry x="564" y="288.13" width="100" height="30" as="geometry" />
        </mxCell>
        <mxCell id="YTTag5eJcVgc5Q4tGM9j-95" value="Diameter 8ft" style="text;html=1;align=center;verticalAlign=middle;whiteSpace=wrap;rounded=0;movable=0;resizable=0;rotatable=0;deletable=0;editable=0;locked=1;connectable=0;rotation=277;" vertex="1" parent="1">
          <mxGeometry x="510" y="140" width="100" height="30" as="geometry" />
        </mxCell>
        <mxCell id="YTTag5eJcVgc5Q4tGM9j-96" value="Max Pump&lt;div&gt;30cfs &amp;gt;= 3ft&lt;/div&gt;" style="text;html=1;align=center;verticalAlign=middle;whiteSpace=wrap;rounded=0;movable=0;resizable=0;rotatable=0;deletable=0;editable=0;locked=1;connectable=0;" vertex="1" parent="1">
          <mxGeometry x="139" y="101" width="73" height="30" as="geometry" />
        </mxCell>
        <mxCell id="YTTag5eJcVgc5Q4tGM9j-97" value="Max Pump&lt;div&gt;15cfs &amp;gt;= 2ft&lt;/div&gt;" style="text;html=1;align=center;verticalAlign=middle;whiteSpace=wrap;rounded=0;movable=0;resizable=0;rotatable=0;deletable=0;editable=0;locked=1;connectable=0;" vertex="1" parent="1">
          <mxGeometry x="35" y="101" width="73" height="30" as="geometry" />
        </mxCell>
        <mxCell id="YTTag5eJcVgc5Q4tGM9j-100" value="Diameter 5ft" style="text;html=1;align=center;verticalAlign=middle;whiteSpace=wrap;rounded=0;movable=1;resizable=1;rotatable=1;deletable=1;editable=1;locked=0;connectable=1;rotation=353;" vertex="1" parent="1">
          <mxGeometry x="309.95" y="396.3" width="100" height="30" as="geometry" />
        </mxCell>
        <mxCell id="YTTag5eJcVgc5Q4tGM9j-101" value="" style="ellipse;whiteSpace=wrap;html=1;aspect=fixed;fillColor=#ff1500;fontColor=#ffffff;strokeColor=none;movable=1;resizable=1;rotatable=1;deletable=1;editable=1;locked=0;connectable=1;" vertex="1" parent="1">
          <mxGeometry x="531.5" y="206" width="20" height="20" as="geometry" />
        </mxCell>
        <mxCell id="YTTag5eJcVgc5Q4tGM9j-102" value="" style="edgeStyle=orthogonalEdgeStyle;rounded=0;orthogonalLoop=1;jettySize=auto;html=1;dashed=1;movable=1;resizable=1;rotatable=1;deletable=1;editable=1;locked=0;connectable=1;entryX=1;entryY=0.5;entryDx=0;entryDy=0;" edge="1" parent="1" source="YTTag5eJcVgc5Q4tGM9j-103" target="YTTag5eJcVgc5Q4tGM9j-101">
          <mxGeometry relative="1" as="geometry">
            <mxPoint x="140" y="420" as="targetPoint" />
            <Array as="points">
              <mxPoint x="722" y="110" />
              <mxPoint x="580" y="110" />
              <mxPoint x="580" y="216" />
            </Array>
          </mxGeometry>
        </mxCell>
        <mxCell id="YTTag5eJcVgc5Q4tGM9j-103" value="Near-surface Sewer Crown - Flood Risk (J21)" style="text;html=1;align=center;verticalAlign=middle;whiteSpace=wrap;rounded=0;movable=1;resizable=1;rotatable=1;deletable=1;editable=1;locked=0;connectable=1;rotation=0;fontStyle=1;textShadow=1;labelBorderColor=default;" vertex="1" parent="1">
          <mxGeometry x="651.5" y="60" width="148.5" height="30" as="geometry" />
        </mxCell>
        <mxCell id="YTTag5eJcVgc5Q4tGM9j-106" value="" style="edgeStyle=orthogonalEdgeStyle;rounded=0;orthogonalLoop=1;jettySize=auto;html=1;dashed=1;" edge="1" parent="1" source="YTTag5eJcVgc5Q4tGM9j-104">
          <mxGeometry relative="1" as="geometry">
            <mxPoint x="200" y="196" as="targetPoint" />
          </mxGeometry>
        </mxCell>
        <mxCell id="YTTag5eJcVgc5Q4tGM9j-104" value="East River&amp;nbsp;&lt;div&gt;Wet Well&lt;/div&gt;" style="text;html=1;align=center;verticalAlign=middle;whiteSpace=wrap;rounded=0;movable=1;resizable=1;rotatable=1;deletable=1;editable=1;locked=0;connectable=1;rotation=0;fontStyle=1;textShadow=1;labelBorderColor=default;dashed=1;" vertex="1" parent="1">
          <mxGeometry x="238" y="170" width="60" height="30" as="geometry" />
        </mxCell>
        <mxCell id="YTTag5eJcVgc5Q4tGM9j-107" value="" style="edgeStyle=orthogonalEdgeStyle;rounded=0;orthogonalLoop=1;jettySize=auto;html=1;dashed=1;exitX=1;exitY=0.5;exitDx=0;exitDy=0;" edge="1" parent="1" source="YTTag5eJcVgc5Q4tGM9j-108">
          <mxGeometry relative="1" as="geometry">
            <mxPoint x="30" y="205" as="targetPoint" />
          </mxGeometry>
        </mxCell>
        <mxCell id="YTTag5eJcVgc5Q4tGM9j-108" value="West River&amp;nbsp;&lt;div&gt;Wet Well&lt;/div&gt;" style="text;html=1;align=center;verticalAlign=middle;whiteSpace=wrap;rounded=0;movable=1;resizable=1;rotatable=1;deletable=1;editable=1;locked=0;connectable=1;rotation=0;fontStyle=1;textShadow=1;labelBorderColor=default;dashed=1;" vertex="1" parent="1">
          <mxGeometry x="-60" y="190" width="60" height="30" as="geometry" />
        </mxCell>
      </root>
    </mxGraphModel>
  </diagram>
</mxfile>
